<svg xmlns="http://www.w3.org/2000/svg" width="72" height="71" viewBox="0 0 72 71">
  <g id="Group_3965" data-name="Group 3965" transform="translate(-331 -926)">
    <ellipse id="Ellipse_12" data-name="Ellipse 12" cx="36" cy="35.5" rx="36" ry="35.5" transform="translate(331 926)" fill="#e1e1e1"/>
    <path id="Path_14" data-name="Path 14" d="M1079.957,811.984h21.551v-2.09h-22.023a4.015,4.015,0,0,0-4.015,4.015v25.076a4.015,4.015,0,0,0,4.015,4.015h20.765a3.811,3.811,0,0,0,1.259-.216V816.155h-21.551a2.085,2.085,0,1,1,0-4.171Zm2.418,17.345,1.066-2.209a.124.124,0,0,1,.112-.07h2.891a.124.124,0,0,0,.125-.125v-.561a.124.124,0,0,1,.124-.124h3.914a.124.124,0,0,1,.124.124v.59a.124.124,0,0,0,.124.124h3.956a.124.124,0,0,1,.112.178l-.955,1.958a.416.416,0,0,1-.374.234h-2.739a.124.124,0,0,0-.124.124v.648a.124.124,0,0,1-.124.124h-3.914a.124.124,0,0,1-.124-.124v-.59a.124.124,0,0,0-.125-.124h-3.956A.125.125,0,0,1,1082.375,829.329Z" transform="translate(-721.497 135.202)" fill="#55575b"/>
  </g>
</svg>
