<svg xmlns="http://www.w3.org/2000/svg" width="70" height="71" viewBox="0 0 70 71">
  <g id="Group_3966" data-name="Group 3966" transform="translate(-482 -926)">
    <ellipse id="Ellipse_2" data-name="Ellipse 2" cx="35" cy="35.5" rx="35" ry="35.5" transform="translate(482 926)" fill="#e1e1e1"/>
    <path id="Path_9" data-name="Path 9" d="M1002.973,810.131H971.909a5.463,5.463,0,0,0-5.462,5.463v14.913l-.059-.031v4.411c-.059,7.821,7.586,8.174,7.586,8.174v-4.675h29a5.463,5.463,0,0,0,5.463-5.463V815.594A5.463,5.463,0,0,0,1002.973,810.131Zm-2.889,12.3-1.943,3.984a.846.846,0,0,1-.76.475h-5.57a.252.252,0,0,0-.253.253v1.318a.253.253,0,0,1-.253.253h-7.963a.253.253,0,0,1-.253-.253v-1.2a.252.252,0,0,0-.252-.253h-8.049a.252.252,0,0,1-.227-.362l2.167-4.494a.254.254,0,0,1,.228-.143h5.882a.252.252,0,0,0,.252-.253v-1.142a.252.252,0,0,1,.253-.253h7.963a.252.252,0,0,1,.253.253v1.2a.253.253,0,0,0,.253.253h8.047A.252.252,0,0,1,1000.084,822.428Z" transform="translate(-470.128 136.559)" fill="#55575b"/>
  </g>
</svg>
