<svg xmlns="http://www.w3.org/2000/svg" width="31.264" height="35.367" viewBox="0 0 31.264 35.367">
  <g id="Group_3353" data-name="Group 3353" transform="translate(-323.986 -38.75)">
    <g id="Group_3330" data-name="Group 3330" transform="translate(-13 -18.598)">
      <g id="Group_2103" data-name="Group 2103" transform="translate(344 58.598)">
        <line id="Line_237" data-name="Line 237" x1="23" transform="translate(0 0)" fill="none" stroke="#000" stroke-linecap="round" stroke-width="2.5"/>
        <line id="Line_238" data-name="Line 238" x1="23" transform="translate(0 7)" fill="none" stroke="#000" stroke-linecap="round" stroke-width="2.5"/>
        <line id="Line_239" data-name="Line 239" x1="19" transform="translate(4 14)" fill="none" stroke="#000" stroke-linecap="round" stroke-width="2.5"/>
      </g>
      <path id="Path_568" data-name="Path 568" d="M-31.014,0V-9h1.9l1.91,4.8,1.9-4.8h1.91V0h-1.629V-5.027l.012-.7h-.012L-26.7-1.646H-27.7l-1.682-4.078H-29.4q.012.4.012.7V0Zm9.4,0V-9h5.432v1.617h-3.68v1.957h3.035V-3.8h-3.035v2.186h3.68V0Zm6.779,0V-9H-13l2.748,5.748h.012q-.012-.4-.012-.7V-9h1.629V0h-1.846L-13.2-5.748h-.012q.012.4.012.7V0ZM-6.9-3.023V-9h1.752v5.953a2.017,2.017,0,0,0,.135.861,1.094,1.094,0,0,0,1.078.639H-3.8a1.311,1.311,0,0,0,.633-.158,1.026,1.026,0,0,0,.445-.48,2.141,2.141,0,0,0,.135-.861V-9H-.832v5.977a3.528,3.528,0,0,1-.229,1.377,2.677,2.677,0,0,1-1.093,1.3A3.065,3.065,0,0,1-3.8.117h-.135A3.1,3.1,0,0,1-5.584-.346a2.654,2.654,0,0,1-1.1-1.3A3.756,3.756,0,0,1-6.9-3.023Z" transform="translate(368 92.598)" fill="#101012"/>
    </g>
  </g>
</svg>
